Coordinates
version=1
nRows=26
nColumns=24
inDegrees=yes

Units are S.I. units (second, meters, Newtons, ...)
Angles are in degrees.

endheader
time	pelvis_tilt	pelvis_list	pelvis_rotation	pelvis_tx	pelvis_ty	pelvis_tz	hip_flexion_r	hip_adduction_r	hip_rotation_r	knee_angle_r	ankle_angle_r	subtalar_angle_r	mtp_angle_r	hip_flexion_l	hip_adduction_l	hip_rotation_l	knee_angle_l	ankle_angle_l	subtalar_angle_l	mtp_angle_l	lumbar_extension	lumbar_bending	lumbar_rotation
      5.22000000	    -10.62725886	     -1.20608818	      5.08949455	     -1.23247495	     -0.02917446	      2.05385623	     34.18036640	     -0.72545541	    -17.33577196	     -5.53787511	      9.68039553	     16.29282098	    -32.77391359	     -3.76689325	      2.03505836	     -4.94256377	    -12.08958328	     21.37261494	      9.82108336	    -42.49822869	      3.31749977	      1.39495519	     -6.92312965
      5.23000000	    -10.66688566	     -1.36820067	      5.24718736	     -1.21864589	     -0.03071430	      2.05474117	     34.58939656	     -0.72690405	    -17.73643343	     -7.03378704	      9.98379785	     15.70220877	    -33.30230465	     -3.83839459	      1.51662082	     -4.96094249	    -13.55813484	     21.06109993	     10.78710301	    -40.25413476	      3.50106420	      1.54460808	     -7.05289859
      5.24000000	    -10.49768531	     -1.63935768	      5.43196180	     -1.20440934	     -0.03200891	      2.05561953	     34.67597310	     -0.57820897	    -17.66793760	     -8.67053733	      9.92192785	     14.37900433	    -33.82930200	     -4.09013634	      0.84073199	     -4.94572049	    -15.10543384	     20.57597550	     11.74544345	    -37.81365841	      3.52938235	      1.82623622	     -7.24922768
      5.25000000	    -10.44623600	     -1.98833724	      5.49083929	     -1.18991244	     -0.03341521	      2.05687996	     34.80480318	     -0.21925718	    -17.11403668	    -10.27043384	      9.28091091	     12.53328380	    -34.28754471	     -4.09630720	      0.02720075	     -5.26253318	    -16.89928082	     20.30114007	     13.00997116	    -36.76177967	      3.72120714	      2.16424287	     -7.33911854
      5.26000000	    -10.40549082	     -2.47479931	      5.55643044	     -1.17520098	     -0.03456966	      2.05816089	     34.78063440	      0.32659502	    -16.36072106	    -11.59107047	      8.21993973	     10.48485645	    -36.06928743	     -3.98968711	     -0.91065675	     -5.41505319	    -18.77708053	     19.00233173	     13.86064157	    -31.74475923	      3.97031233	      2.64703897	     -7.50358054
      5.27000000	    -10.45137943	     -3.14586537	      5.46593081	     -1.16037795	     -0.03553948	      2.05984281	     34.74716417	      1.18426326	    -15.49781082	    -12.59353769	      6.61434140	      8.47517557	    -38.01677419	     -3.61394023	     -2.12155913	     -5.98965970	    -20.95437843	     17.78480336	     15.01996701	    -27.98422612	      4.33345892	      3.30785024	     -7.53759400
      5.28000000	    -10.54794744	     -3.92744033	      5.26054120	     -1.14557722	     -0.03615278	      2.06163002	     34.75246742	      2.19665210	    -14.71162065	    -13.46066133	      4.76710861	      6.82350003	    -39.71040139	     -3.02019776	     -3.46739704	     -6.72840574	    -23.33456504	     15.98811430	     15.97580036	    -23.25420711	      4.74620645	      4.10270540	     -7.47621672
      5.29000000	    -10.72257475	     -4.76308160	      5.01935328	     -1.13084527	     -0.03644789	      2.06344418	     34.88276629	      3.27527317	    -13.94319936	    -14.35287892	      2.90145655	      5.27446838	    -40.93044907	     -2.14782412	     -4.88424608	     -7.47405259	    -25.92172649	     13.47581684	     16.60145355	    -17.33640577	      5.23147614	      4.95710225	     -7.41446960
      5.30000000	    -10.92009501	     -5.60771704	      4.77025068	     -1.11609496	     -0.03651616	      2.06522492	     35.09307346	      4.34531374	    -13.37837883	    -15.40964776	      1.38350901	      3.97466989	    -41.83200118	     -1.05871689	     -6.34531936	     -8.25703084	    -28.68458423	     10.16600070	     16.85724115	    -10.02371824	      5.74603390	      5.82567487	     -7.37495262
      5.31000000	    -11.08963208	     -6.40591935	      4.54795229	     -1.10135446	     -0.03643533	      2.06698962	     35.26422777	      5.38728597	    -12.84954624	    -16.55249062	      0.34105955	      2.63372617	    -42.72474291	      0.18198590	     -7.77016634	     -8.92126972	    -31.55396621	      6.09082889	     16.48374418	     -2.04526047	      6.23122855	      6.64204684	     -7.43271345
      5.32000000	    -11.19435151	     -7.22552104	      4.37588045	     -1.08667757	     -0.03626355	      2.06881529	     35.27547192	      6.45879882	    -12.52751935	    -17.62060567	     -0.18285223	      1.40680549	    -43.86443368	      1.55171101	     -9.23916130	     -9.36274288	    -34.53846377	      1.49072715	     15.56327900	      5.59050061	      6.64399176	      7.44894985	     -7.48880231
      5.33000000	    -11.28778611	     -8.06783589	      4.19343390	     -1.07216836	     -0.03617581	      2.07067657	     35.15075895	      7.61105087	    -12.14208942	    -18.52990016	     -0.21359589	      0.22262686	    -45.37240488	      3.08847430	    -10.69458059	     -9.53474660	    -37.64515311	     -3.20755399	     13.97109861	     11.27757572	      7.03030240	      8.28088438	     -7.56476601
      5.34000000	    -11.61837502	     -8.83230837	      3.94672717	     -1.05805404	     -0.03635675	      2.07260509	     35.17973940	      8.70787863	    -11.75566108	    -19.29907447	      0.03053872	     -0.73685510	    -46.69421670	      5.06296610	    -11.96191452	     -9.36856467	    -40.91773526	     -7.50211638	     11.91612548	     13.13904108	      7.61385695	      9.01214140	     -7.59525522
      5.35000000	    -11.60994740	     -9.84520573	      3.77955729	     -1.04386641	     -0.03607601	      2.07438466	     34.58994975	     10.09382206	    -11.49784775	    -19.57726526	      0.28195872	     -1.65015210	    -47.64280049	      6.75932899	    -13.46212281	     -8.92520576	    -44.13011579	    -11.25008516	      9.80200205	     12.78095854	      7.88435838	     10.02256586	     -7.68984047
      5.36000000	    -11.74342908	    -10.48852834	      3.51415283	     -1.03026595	     -0.03574957	      2.07611764	     34.11040606	     11.09293606	    -11.26308737	    -19.88567698	      1.15417958	     -1.97381126	    -50.70432549	      8.65007797	    -14.39841718	     -8.33922731	    -47.23406760	    -14.26496725	      7.43456885	      9.73763563	      8.17501171	     10.65874989	     -7.54688245
      5.37000000	    -11.73500505	    -11.23107341	      3.37120145	     -1.01666221	     -0.03511232	      2.07759547	     33.32889488	     12.13169403	    -11.31331208	    -19.89231832	      1.84326903	     -2.22520876	    -52.58680187	     10.46360823	    -15.35612160	     -7.53289951	    -50.23110530	    -16.01262890	      5.42410704	      5.10202048	      8.35925006	     11.40116935	     -7.49735339
      5.38000000	    -11.63256859	    -11.79184749	      3.22690740	     -1.00324043	     -0.03418440	      2.07902343	     32.36699444	     12.98518449	    -11.43352088	    -19.81156816	      2.64377580	     -2.22788401	    -54.31101084	     12.14788632	    -16.03004188	     -6.71568095	    -52.98012520	    -16.68100074	      3.73533040	      0.52060949	      8.39835748	     11.96125826	     -7.33623684
      5.39000000	    -11.49579329	    -12.18180350	      3.14756812	     -0.98998850	     -0.03302701	      2.08027060	     31.30747401	     13.61368387	    -11.64318297	    -19.67210352	      3.57112282	     -1.98907601	    -55.99412409	     13.79487290	    -16.40363053	     -5.83158520	    -55.44217429	    -16.56183528	      2.29048446	     -2.71672548	      8.38031502	     12.34192492	     -7.15765447
      5.40000000	    -11.20166989	    -12.47013443	      3.17750581	     -0.97686816	     -0.03151027	      2.08139163	     29.99712353	     14.13714115	    -11.81134631	    -19.39424085	      4.29018203	     -1.81040486	    -56.19495715	     15.26919504	    -16.57793427	     -4.89011867	    -57.53834965	    -16.16379769	      1.01887610	     -3.02501712	      8.18840442	     12.60458851	     -6.97237103
      5.41000000	    -11.05740358	    -12.55354794	      3.15639643	     -0.96394719	     -0.03003546	      2.08234405	     28.80284593	     14.44849595	    -11.73599832	    -19.11654873	      5.40809220	     -1.47223130	    -58.52201095	     16.90055473	    -16.40517250	     -3.97706880	    -59.45271276	    -14.61567948	      0.14000802	     -5.59752703	      8.12062433	     12.67285763	     -6.74342121
      5.42000000	    -10.75211497	    -12.61287220	      3.17361286	     -0.95116213	     -0.02827952	      2.08334560	     27.33577775	     14.83336978	    -11.31592803	    -18.62755236	      5.98756810	     -1.59371821	    -58.49900097	     18.33102044	    -16.18653583	     -3.10498283	    -60.98773909	    -13.20998355	     -0.54382685	     -5.32875271	      7.85882092	     12.71522579	     -6.43511748
      5.43000000	    -10.44937383	    -12.61331391	      3.28000703	     -0.93837194	     -0.02647444	      2.08426943	     25.77545434	     15.17797783	    -10.66164480	    -17.96019929	      6.48303548	     -1.99430452	    -58.45345956	     19.77234213	    -15.82994398	     -2.19254969	    -62.22621972	    -11.61725115	     -1.05933077	     -5.18166332	      7.63528973	     12.66205674	     -6.23719440
      5.44000000	    -10.05269462	    -12.51902179	      3.36984894	     -0.92569917	     -0.02457651	      2.08519129	     24.04943806	     15.47535852	     -9.82507362	    -17.18991773	      6.71459339	     -2.58827243	    -57.24827138	     21.06336894	    -15.34753323	     -1.35013031	    -63.23973486	     -9.26947428	     -1.06232864	     -7.63788235	      7.28162589	     12.52395695	     -5.91838026
      5.45000000	     -9.71866609	    -12.32443810	      3.47060650	     -0.91315410	     -0.02272244	      2.08607328	     22.34256058	     15.66059520	     -8.92487125	    -16.31482603	      6.89043131	     -3.33724682	    -56.81681609	     22.36165160	    -14.71567799	     -0.60779989	    -63.87279513	     -7.42797248	     -1.30549725	     -8.10152450	      6.98483145	     12.27666447	     -5.60482487
      5.46000000	     -9.49891867	    -12.13551499	      3.66679562	     -0.90068335	     -0.02113289	      2.08674084	     20.75719830	     15.75063694	     -8.30938081	    -15.40343204	      7.17468964	     -3.82964151	    -56.66728467	     23.79471516	    -13.99952528	      0.20821590	    -64.25360206	     -5.65809580	     -1.49127659	     -8.03998774	      6.84282657	     12.02278540	     -5.48378335
      5.47000000	     -9.11221049	    -11.84427712	      3.75792572	     -0.88839859	     -0.01946267	      2.08749099	     18.98228994	     15.77318523	     -7.68347668	    -14.51345020	      7.17256817	     -4.26219434	    -54.54351673	     24.93112386	    -13.20910206	      0.85421500	    -64.47624374	     -2.56187666	     -1.01591150	    -13.65979246	      6.45091710	     11.70254279	     -5.10048336
